<?xml version="1.0" encoding="UTF-8"?><svg id="Layer_1" xmlns="http://www.w3.org/2000/svg" xmlns:xlink="http://www.w3.org/1999/xlink" viewBox="0 0 1707.62 851.3"><defs><style>.cls-1{fill:#fff;}.cls-2{fill:url(#linear-gradient);}.cls-3{fill:#231f20;}</style><linearGradient id="linear-gradient" x1="669.79" y1="85.83" x2="1037.75" y2="394.59" gradientTransform="matrix(1, 0, 0, 1, 0, 0)" gradientUnits="userSpaceOnUse"><stop offset="0" stop-color="#f58220"/><stop offset=".23" stop-color="#f68d22"/><stop offset=".63" stop-color="#faab2a"/><stop offset="1" stop-color="#ffcc32"/></linearGradient></defs><g><g><path class="cls-3" d="M1159.49,808.72l-3.27,6.94c-5.07-3.07-10.14-4.34-13.68-4.34-4.6,0-7.61,1.73-7.61,4.87,0,10.21,25.22,4.74,25.16,21.55,0,8.34-7.34,13.48-17.62,13.48-7.34,0-14.28-3-19.08-7.41l3.4-6.81c4.8,4.4,10.81,6.81,15.81,6.81,5.47,0,8.74-2.07,8.74-5.67,0-10.41-25.22-4.6-25.22-21.22,0-8.01,6.87-13.01,17.02-13.01,6.07,0,12.01,1.93,16.35,4.8Z"/><path class="cls-3" d="M1193.65,850.96v-46.71h7.87v46.71h-7.87Z"/><path class="cls-3" d="M1270.91,850.96l-24.89-33.5v33.5h-7.87v-46.71h7.74l25.02,33.56v-33.56h7.74v46.71h-7.74Z"/><path class="cls-3" d="M1353.79,811.26l-4.6,5.74c-3.4-3.67-8.27-5.94-13.01-5.94-9.34,0-16.68,7.21-16.68,16.42s7.34,16.48,16.68,16.48c4.67,0,9.48-2.14,13.01-5.54l4.67,5.2c-4.74,4.67-11.48,7.67-18.08,7.67-13.68,0-24.29-10.34-24.29-23.76s10.74-23.49,24.56-23.49c6.61,0,13.21,2.74,17.75,7.21Z"/><path class="cls-3" d="M1394.09,811.33v12.61h22.82v7.07h-22.82v12.88h26.29v7.07h-34.16v-46.71h33.36v7.07h-25.49Z"/><path class="cls-3" d="M1498.78,850.96v-39.7h-9.14v-7.01h17.02v46.71h-7.87Z"/><path class="cls-3" d="M1542.41,847.76l3.07-5.94c2.87,1.87,6.81,2.94,10.34,2.94,9.08,0,13.28-6.81,13.01-16.88-2.47,4.34-6.87,6.61-12.75,6.61-9.34,0-15.01-5.81-15.01-14.88,0-9.68,6.47-15.68,16.42-15.68,11.81,0,19.02,8.41,19.02,22.75s-7.81,24.62-20.15,24.62c-4.6,0-10.14-1.4-13.95-3.54Zm25.16-28.36c.07-4.07-2.94-8.67-9.68-8.67-5.67,0-9.48,3.27-9.48,8.94,0,5.34,3.47,8.61,9.14,8.61,6.34,0,10.08-4.07,10.01-8.88Z"/><path class="cls-3" d="M1607.14,847.76l3.07-5.94c2.87,1.87,6.81,2.94,10.34,2.94,9.07,0,13.28-6.81,13.01-16.88-2.47,4.34-6.87,6.61-12.75,6.61-9.34,0-15.01-5.81-15.01-14.88,0-9.68,6.47-15.68,16.42-15.68,11.81,0,19.02,8.41,19.02,22.75s-7.81,24.62-20.15,24.62c-4.6,0-10.14-1.4-13.95-3.54Zm25.16-28.36c.07-4.07-2.94-8.67-9.68-8.67-5.67,0-9.48,3.27-9.48,8.94,0,5.34,3.47,8.61,9.14,8.61,6.34,0,10.08-4.07,10.01-8.88Z"/><path class="cls-3" d="M1671.86,847.76l3.07-5.94c2.87,1.87,6.81,2.94,10.34,2.94,9.08,0,13.28-6.81,13.01-16.88-2.47,4.34-6.87,6.61-12.75,6.61-9.34,0-15.01-5.81-15.01-14.88,0-9.68,6.47-15.68,16.42-15.68,11.81,0,19.02,8.41,19.02,22.75s-7.81,24.62-20.15,24.62c-4.6,0-10.14-1.4-13.95-3.54Zm25.16-28.36c.07-4.07-2.94-8.67-9.68-8.67-5.67,0-9.48,3.27-9.48,8.94,0,5.34,3.47,8.61,9.14,8.61,6.34,0,10.08-4.07,10.01-8.88Z"/></g><g><path class="cls-3" d="M123.94,759.34h-14.36v-67.77H14.36v67.77H0v-151.15H14.36v70.03H109.58v-70.03h14.36v151.15Z"/><path class="cls-3" d="M299.28,608.19h16.63l-59.2,93.21v57.94h-14.36v-57.94l-58.95-93.21h16.88l44.84,71.29,3.78,7.81h2.02l4.03-7.81,44.34-71.29Z"/><path class="cls-3" d="M375.36,608.19h60.46c18.81,0,33.46,4.2,43.96,12.6,10.49,8.4,15.74,20.83,15.74,37.28s-5.42,30.07-16.25,38.79c-10.83,8.73-25.57,13.1-44.21,13.1h-45.35v49.38h-14.36v-151.15Zm105.81,50.38c0-12.76-4.2-22.13-12.6-28.09-8.4-5.96-19.4-8.94-33-8.94h-45.85v75.07h45.85c13.77,0,24.81-2.98,33.13-8.94,8.31-5.96,12.47-15.66,12.47-29.1Z"/><path class="cls-3" d="M653.67,691.57h-83.64v54.41h94.97v13.35h-109.33v-151.15h109.33v13.35h-94.97v56.68h83.64v13.35Z"/><path class="cls-3" d="M724.95,608.19h60.21c18.98,0,33.71,4.2,44.21,12.6,10.49,8.4,15.74,20.83,15.74,37.28,0,12.93-3.4,23.3-10.2,31.11-6.8,7.81-15.83,13.14-27.08,16v1.01l40.81,49.63v3.53h-15.37l-42.57-51.39h-51.39v51.39h-14.36v-151.15Zm105.55,50.38c0-12.76-4.16-22.13-12.47-28.09-8.31-5.96-19.27-8.94-32.88-8.94h-45.85v73.06h48.37c6.05,0,11.71-.71,17-2.14,5.29-1.43,9.82-3.61,13.6-6.55,3.78-2.93,6.76-6.68,8.94-11.21,2.18-4.53,3.28-9.91,3.28-16.12Z"/><path class="cls-3" d="M1048.66,640.18l-56.43,62.48h-4.53l-56.18-61.72v118.4h-14.36v-151.15h4.53l68.52,75.58,68.77-75.58h3.78v151.15h-14.11v-119.16Z"/><path class="cls-3" d="M1220.7,691.57h-83.64v54.41h94.97v13.35h-109.33v-151.15h109.33v13.35h-94.97v56.68h83.64v13.35Z"/><path class="cls-3" d="M1423.48,683.76c0,11.76-1.98,22.29-5.92,31.61-3.95,9.32-9.53,17.26-16.75,23.81-7.22,6.55-15.79,11.55-25.7,14.99-9.91,3.44-20.74,5.16-32.5,5.16h-50.64v-151.15h50.64c11.75,0,22.59,1.72,32.5,5.17,9.91,3.44,18.47,8.44,25.7,14.99,7.22,6.55,12.8,14.49,16.75,23.81,3.94,9.32,5.92,19.86,5.92,31.62Zm-117.14-62.22v124.45h35.77c9.4,0,18.18-1.42,26.33-4.28,8.14-2.85,15.2-6.93,21.16-12.22,5.96-5.29,10.66-11.8,14.11-19.52,3.44-7.72,5.16-16.46,5.16-26.2s-1.72-18.47-5.16-26.2c-3.44-7.72-8.15-14.23-14.11-19.52-5.96-5.29-13.02-9.36-21.16-12.22-8.15-2.85-16.92-4.28-26.33-4.28h-35.77Z"/><path class="cls-3" d="M1497.78,759.34h-14.36v-151.15h14.36v151.15Z"/><path class="cls-3" d="M1630.29,608.19h3.53l73.81,151.15h-16.37l-14.36-28.72h-89.43l-14.36,28.72h-16.12l73.31-151.15Zm2.77,29.22h-2.02l-35.27,76.84-1.51,2.77h75.83l-1.51-2.77-35.52-76.84Z"/></g></g><g><path class="cls-2" d="M700.93,267.57l89.61-34.27v-97.57l.56-.21,47.75-18.26,87.72,86.24,78.1-150.03,.04-.02C963.46,20.07,911,0,853.81,0c-132.64,0-240.17,107.53-240.17,240.17,0,36.2,8.24,70.4,22.58,101.18V194.75l64.7-24.75v97.57Zm368.99-131.66l.05,148.63-63.32,24.22v-122.83l-59.04,114.09-24.22,9.26-68.98-65.13v122.83l-63.32,24.22-.56,.21v-96.18l-89.61,34.27v95.87c41.53,34.32,94.8,54.95,152.89,54.95,132.64,0,240.17-107.53,240.17-240.17,0-37.41-8.8-72.68-24.06-104.25Z"/><path class="cls-1" d="M1069.96,284.54l-.05-148.63c-15.51-32.1-37.78-60.28-65.21-82.48l-.04,.02-78.1,150.03-87.72-86.24-47.75,18.26-.56,.21v97.57l-89.61,34.27v-97.57l-64.7,24.75v146.59c15.2,32.61,37.28,61.38,64.7,84.04v-95.87l89.61-34.27v96.18l.56-.21,63.32-24.22v-122.83l68.98,65.13,24.22-9.26,59.04-114.09v122.83l63.32-24.22Z"/></g></svg>